<svg width="676" height="621" viewBox="0 0 676 621" fill="none" xmlns="http://www.w3.org/2000/svg">
<path d="M541.855 850.525C652.134 785.396 684.65 636.283 614.482 517.472C544.314 398.661 398.033 355.143 287.753 420.272C177.474 485.401 144.958 634.515 215.127 753.326C285.295 872.137 431.576 915.655 541.855 850.525Z" fill="#FFEE86" fill-opacity="0.7"/>
<path d="M706.983 477.829C706.253 459.18 697.087 442.964 687.199 428.03C676.846 411.708 665.48 396.121 653.165 381.359C631.021 355.927 602.012 334.365 566.514 334.872C554.815 335.321 543.195 338.21 532.358 343.363C521.522 348.516 511.696 355.825 503.478 364.847C445.138 426.429 473.251 522.178 515.049 578.588C521.455 587.255 528.41 595.466 535.873 603.172C553.036 620.78 589.253 628.195 596.615 594.065C600.386 576.489 591.349 563.376 581.633 550.812C567.466 532.346 538.096 502.415 555.054 475.76C556.938 472.86 559.191 470.222 561.748 467.922C591.606 440.25 615.992 485.875 627.634 506.332C635.396 519.97 649.088 535.196 666.146 534.923C688.847 534.591 702.485 511.195 705.95 490.642C706.755 486.397 707.101 482.1 706.983 477.829Z" fill="#E4C12C"/>
<path d="M776.745 436.257C783.262 430.281 788.545 423.019 792.245 414.951C795.946 406.883 797.979 398.194 798.21 389.459C798.414 366.95 780.54 350.039 767.831 334.432C755.123 318.825 741.269 302.244 726.971 286.874C698.733 256.392 666.901 228.343 628.869 211.101C614.744 204.679 599.882 199.927 584.555 196.931C560.678 192.363 535.87 192.929 511.657 198.594C473.206 207.934 437.594 228.407 409.139 257.531C392.977 273.909 379.042 292.445 367.757 312.581C345.962 349.83 336.169 392.693 339.858 434.696C343.279 465.23 354.475 493.608 367.267 520.657C380.059 547.707 393.161 574.535 406.408 601.388C415.155 618.86 422.856 638.612 437.147 652.069C444.148 658.33 453.225 661.703 462.761 661.589C472.298 661.475 481.675 657.88 489.221 651.445C515.99 629.493 498.284 596.424 484.489 574.626C466.48 546.694 449.592 517.899 438.641 485.896C425.9 448.714 423.315 407.362 443.34 370.345C459.52 341.658 485.284 319.689 515.508 308.805C545.732 297.921 578.203 298.92 606.464 311.603C636.193 325.177 657.841 350.644 676.017 377.434C684.75 390.38 692.953 403.703 701.156 417.026C709.359 430.35 716.945 446.221 730.358 455.512C744.617 465.414 761.765 450.063 772.923 439.939C774.301 438.573 775.515 437.452 776.745 436.257Z" fill="#E4C12C"/>
<path d="M634.915 207.772C636.131 209.044 637.873 209.139 639.056 208.009C640.249 206.868 640.233 205.123 639.028 203.863C637.813 202.591 636.081 202.507 634.888 203.626C633.694 204.767 633.7 206.5 634.915 207.772Z" fill="#678D58"/>
<path d="M614.009 185.901C615.204 187.193 616.957 187.342 618.162 186.234C619.377 185.116 619.404 183.352 618.231 182.083C617.037 180.791 615.294 180.653 614.089 181.76C612.853 182.877 612.826 184.62 614.009 185.901Z" fill="#678D58"/>
<path d="M593.18 164.108C594.385 165.39 596.138 165.496 597.332 164.377C598.536 163.248 598.53 161.493 597.336 160.222C596.131 158.94 594.399 158.835 593.195 159.964C591.98 161.104 591.975 162.826 593.18 164.108Z" fill="#678D58"/>
<path d="M680.605 226.839C679.4 225.557 677.668 225.431 676.453 226.549C675.238 227.688 675.222 229.42 676.416 230.691C677.621 231.973 679.364 232.111 680.558 230.992C681.773 229.874 681.778 228.109 680.605 226.839Z" fill="#678D58"/>
<path d="M655.619 208.933C656.834 210.183 658.587 210.268 659.77 209.116C660.942 207.974 660.904 206.206 659.688 204.956C658.462 203.694 656.731 203.632 655.548 204.784C654.355 205.925 654.392 207.671 655.619 208.933Z" fill="#678D58"/>
<path d="M634.648 186.992C635.832 188.295 637.585 188.466 638.801 187.391C640.027 186.284 640.086 184.533 638.934 183.243C637.751 181.94 635.997 181.769 634.792 182.856C633.534 183.971 633.475 185.701 634.648 186.992Z" fill="#678D58"/>
<path d="M613.829 165.211C615.034 166.493 616.787 166.621 617.97 165.512C619.174 164.382 619.19 162.629 617.996 161.358C616.791 160.076 615.048 159.959 613.855 161.078C612.651 162.208 612.634 163.94 613.829 165.211Z" fill="#678D58"/>
<path d="M680.259 210.393C681.528 209.31 681.63 207.561 680.522 206.252C679.37 204.919 677.605 204.694 676.378 205.736C675.109 206.818 674.996 208.556 676.116 209.855C677.278 211.221 679.033 211.435 680.259 210.393Z" fill="#678D58"/>
<path d="M655.319 188.118C656.503 189.421 658.246 189.602 659.461 188.505C660.687 187.399 660.746 185.647 659.595 184.357C658.411 183.055 656.657 182.884 655.452 183.97C654.205 185.097 654.146 186.827 655.319 188.118Z" fill="#678D58"/>
<path d="M634.576 166.416C635.791 167.667 637.544 167.73 638.716 166.566C639.887 165.424 639.839 163.667 638.613 162.405C637.386 161.165 635.655 161.103 634.473 162.255C633.301 163.419 633.349 165.154 634.576 166.416Z" fill="#678D58"/>
<path d="M676.12 189.381C677.347 190.621 679.099 190.684 680.271 189.521C681.432 188.367 681.384 186.61 680.146 185.359C678.92 184.118 677.189 184.056 676.007 185.23C674.824 186.382 674.872 188.118 676.12 189.381Z" fill="#678D58"/>
<path d="M655.171 167.463C656.376 168.745 658.129 168.873 659.312 167.764C660.516 166.635 660.532 164.881 659.338 163.61C658.133 162.328 656.401 162.201 655.197 163.331C653.993 164.46 653.977 166.192 655.171 167.463Z" fill="#678D58"/>
<path d="M675.831 168.577C677.025 169.87 678.779 170.019 679.983 168.911C681.198 167.793 681.225 166.029 680.052 164.76C678.858 163.467 677.115 163.329 675.911 164.437C674.674 165.554 674.647 167.296 675.831 168.577Z" fill="#678D58"/>
<path d="M639.602 265.944C638.387 264.672 636.655 264.588 635.451 265.739C634.258 266.88 634.285 268.614 635.5 269.886C636.716 271.158 638.469 271.243 639.641 270.101C640.834 268.96 640.807 267.204 639.602 265.944Z" fill="#678D58"/>
<path d="M614.748 243.781C613.479 244.864 613.366 246.601 614.486 247.9C615.648 249.245 617.402 249.459 618.629 248.417C619.887 247.344 620 245.585 618.881 244.286C617.74 242.943 615.964 242.728 614.748 243.781Z" fill="#678D58"/>
<path d="M593.732 226.187C594.937 227.469 596.691 227.597 597.874 226.488C599.078 225.359 599.094 223.605 597.9 222.334C596.695 221.052 594.963 220.925 593.759 222.055C592.554 223.184 592.549 224.906 593.732 226.187Z" fill="#678D58"/>
<path d="M660.241 267.035C659.015 265.795 657.284 265.733 656.101 266.885C654.929 268.027 654.967 269.773 656.215 271.036C657.441 272.276 659.183 272.35 660.355 271.186C661.516 270.054 661.467 268.297 660.241 267.035Z" fill="#678D58"/>
<path d="M635.266 249.14C636.471 250.422 638.202 250.549 639.407 249.441C640.611 248.312 640.638 246.569 639.444 245.298C638.239 244.016 636.507 243.89 635.292 245.008C634.098 246.127 634.082 247.859 635.266 249.14Z" fill="#678D58"/>
<path d="M614.425 227.336C615.63 228.618 617.372 228.734 618.565 227.594C619.77 226.464 619.764 224.709 618.57 223.439C617.365 222.156 615.623 222.062 614.429 223.181C613.225 224.332 613.219 226.054 614.425 227.336Z" fill="#678D58"/>
<path d="M593.584 205.532C594.8 206.804 596.532 206.888 597.725 205.747C598.918 204.606 598.891 202.85 597.676 201.6C596.46 200.328 594.729 200.244 593.525 201.395C592.353 202.537 592.369 204.26 593.584 205.532Z" fill="#678D58"/>
<path d="M680.977 268.229C679.772 266.947 678.04 266.842 676.836 267.972C675.632 269.101 675.626 270.845 676.82 272.115C678.026 273.397 679.779 273.504 680.972 272.384C682.155 271.254 682.16 269.489 680.977 268.229Z" fill="#678D58"/>
<path d="M660.114 246.403C658.909 245.12 657.177 245.015 655.973 246.145C654.769 247.274 654.763 249.018 655.958 250.288C657.163 251.57 658.916 251.677 660.109 250.558C661.292 249.427 661.297 247.662 660.114 246.403Z" fill="#678D58"/>
<path d="M635.031 228.394C636.214 229.697 637.968 229.867 639.184 228.793C640.41 227.686 640.469 225.934 639.317 224.645C638.144 223.332 636.38 223.171 635.175 224.257C633.917 225.373 633.868 227.093 635.031 228.394Z" fill="#678D58"/>
<path d="M614.244 206.647C615.46 207.919 617.202 208.013 618.385 206.883C619.579 205.742 619.562 203.997 618.368 202.727C617.153 201.455 615.421 201.35 614.228 202.49C613.023 203.641 613.029 205.375 614.244 206.647Z" fill="#678D58"/>
<path d="M593.371 184.809C594.576 186.091 596.329 186.197 597.523 185.078C598.727 183.948 598.722 182.193 597.528 180.923C596.322 179.641 594.58 179.546 593.387 180.665C592.172 181.804 592.166 183.526 593.371 184.809Z" fill="#678D58"/>
<path d="M680.84 247.585C679.666 246.273 677.902 246.112 676.697 247.198C675.461 248.315 675.402 250.045 676.553 251.335C677.737 252.637 679.49 252.808 680.706 251.733C681.943 250.638 681.991 248.875 680.84 247.585Z" fill="#678D58"/>
<path d="M655.756 229.576C656.961 230.858 658.714 230.986 659.908 229.867C661.112 228.738 661.128 226.984 659.934 225.713C658.729 224.431 656.986 224.315 655.793 225.434C654.567 226.562 654.551 228.294 655.756 229.576Z" fill="#678D58"/>
<path d="M157.019 472.764C155.237 475.246 153.58 477.844 152.1 480.509L213.977 594.717C216.835 594.598 219.708 594.274 222.585 593.784L157.019 472.764Z" fill="#678D58"/>
<path d="M165.975 462.346C163.936 464.324 162.04 466.423 160.243 468.588L227.503 592.734C230.115 592.072 232.72 591.282 235.298 590.298L165.975 462.346Z" fill="#678D58"/>
<path d="M176.066 454.077C173.827 455.628 171.681 457.266 169.625 459.01L239.748 588.44C242.141 587.346 244.515 586.1 246.833 584.695L176.066 454.077Z" fill="#678D58"/>
<path d="M285.282 510.868C284.67 499.552 281.685 488.271 276.073 477.941C270.465 467.592 262.858 459.293 254.055 453.231L285.282 510.868Z" fill="#678D58"/>
<path d="M180.992 587.708C184.699 589.559 188.575 591.057 192.541 592.204L143.757 502.16C142.759 506.492 142.074 510.883 141.78 515.334L180.992 587.708Z" fill="#678D58"/>
<path d="M149.445 485.707C147.953 488.869 146.687 492.131 145.616 495.463L198.826 593.675C202.024 594.269 205.265 594.623 208.524 594.753L149.445 485.707Z" fill="#678D58"/>
<path d="M199.478 443.417C196.867 444.079 194.262 444.869 191.684 445.853L261.019 573.829C263.058 571.851 264.954 569.753 266.752 567.587L199.478 443.417Z" fill="#678D58"/>
<path d="M245.986 448.463C242.278 446.612 238.403 445.113 234.436 443.967L283.22 534.011C284.219 529.679 284.904 525.288 285.197 520.837L245.986 448.463Z" fill="#678D58"/>
<path d="M141.699 525.283C142.312 536.599 145.297 547.88 150.909 558.21C156.516 568.56 164.123 576.858 172.926 582.92L141.699 525.283Z" fill="#678D58"/>
<path d="M213.005 441.434C210.146 441.553 207.274 441.877 204.397 442.367L269.963 563.387C271.745 560.905 273.402 558.307 274.882 555.642L213.005 441.434Z" fill="#678D58"/>
<path d="M228.153 442.496C224.955 441.902 221.714 441.548 218.454 441.418L277.534 550.464C279.026 547.302 280.291 544.041 281.362 540.708L228.153 442.496Z" fill="#678D58"/>
<path d="M187.229 447.731C184.836 448.825 182.462 450.071 180.144 451.476L250.924 582.118C253.163 580.567 255.309 578.929 257.365 577.185L187.229 447.731Z" fill="#678D58"/>
</svg>
